<svg width="24" height="24" viewBox="0 0 24 24" fill="none" xmlns="http://www.w3.org/2000/svg">
<path fill-rule="evenodd" clip-rule="evenodd" d="M20 12C20 16.4183 16.4183 20 12 20C7.58172 20 4 16.4183 4 12C4 7.58172 7.58172 4 12 4C16.4183 4 20 7.58172 20 12ZM12 9C11.6311 9 11.3076 9.19922 11.1332 9.50073C10.8566 9.97879 10.2449 10.1421 9.76685 9.86561C9.28879 9.58906 9.12543 8.97733 9.40197 8.49927C9.91918 7.60518 10.8883 7 12 7C13.6569 7 15 8.34315 15 10C15 11.3062 14.1652 12.4175 13 12.8293V13C13 13.5523 12.5523 14 12 14C11.4477 14 11 13.5523 11 13V12C11 11.4477 11.4477 11 12 11C12.5523 11 13 10.5523 13 10C13 9.44772 12.5523 9 12 9ZM12 17C12.5523 17 13 16.5523 13 16C13 15.4477 12.5523 15 12 15C11.4477 15 11 15.4477 11 16C11 16.5523 11.4477 17 12 17Z" fill="#727272"/>
</svg>
