<svg width="28" height="28" viewBox="0 0 28 28" fill="none" xmlns="http://www.w3.org/2000/svg">
<g clip-path="url(#clip0_1144_5461)">
<path d="M8.16732 22.1667C9.45598 22.1667 10.5007 21.122 10.5007 19.8333C10.5007 18.5447 9.45598 17.5 8.16732 17.5C6.87865 17.5 5.83398 18.5447 5.83398 19.8333C5.83398 21.122 6.87865 22.1667 8.16732 22.1667Z" stroke="#606BBF" stroke-width="1.5" stroke-linecap="round" stroke-linejoin="round"/>
<path d="M8.16732 22.1667C9.45598 22.1667 10.5007 21.122 10.5007 19.8333C10.5007 18.5447 9.45598 17.5 8.16732 17.5C6.87865 17.5 5.83398 18.5447 5.83398 19.8333C5.83398 21.122 6.87865 22.1667 8.16732 22.1667Z" stroke="black" stroke-opacity="0.5" stroke-width="1.5" stroke-linecap="round" stroke-linejoin="round"/>
<path d="M19.8333 22.1667C21.122 22.1667 22.1667 21.122 22.1667 19.8333C22.1667 18.5447 21.122 17.5 19.8333 17.5C18.5447 17.5 17.5 18.5447 17.5 19.8333C17.5 21.122 18.5447 22.1667 19.8333 22.1667Z" stroke="#606BBF" stroke-width="1.5" stroke-linecap="round" stroke-linejoin="round"/>
<path d="M19.8333 22.1667C21.122 22.1667 22.1667 21.122 22.1667 19.8333C22.1667 18.5447 21.122 17.5 19.8333 17.5C18.5447 17.5 17.5 18.5447 17.5 19.8333C17.5 21.122 18.5447 22.1667 19.8333 22.1667Z" stroke="black" stroke-opacity="0.5" stroke-width="1.5" stroke-linecap="round" stroke-linejoin="round"/>
<path d="M5.83398 19.8333H3.50065V15.1666M2.33398 5.83331H15.1673V19.8333M10.5007 19.8333H17.5007M22.1673 19.8333H24.5007V12.8333H15.1673M15.1673 6.99998H21.0007L24.5007 12.8333" stroke="#606BBF" stroke-width="1.5" stroke-linecap="round" stroke-linejoin="round"/>
<path d="M5.83398 19.8333H3.50065V15.1666M2.33398 5.83331H15.1673V19.8333M10.5007 19.8333H17.5007M22.1673 19.8333H24.5007V12.8333H15.1673M15.1673 6.99998H21.0007L24.5007 12.8333" stroke="black" stroke-opacity="0.5" stroke-width="1.5" stroke-linecap="round" stroke-linejoin="round"/>
<path d="M3.5 10.5H8.16667" stroke="#606BBF" stroke-width="1.5" stroke-linecap="round" stroke-linejoin="round"/>
<path d="M3.5 10.5H8.16667" stroke="black" stroke-opacity="0.5" stroke-width="1.5" stroke-linecap="round" stroke-linejoin="round"/>
</g>
<defs>
<clipPath id="clip0_1144_5461">
<rect width="28" height="28" fill="white"/>
</clipPath>
</defs>
</svg>
