<svg width="20" height="16" viewBox="0 0 20 16" fill="none" xmlns="http://www.w3.org/2000/svg">
<g clip-path="url(#clip0_1466_2676)">
<path d="M10 3.25505L2.8677 9.13513C2.86699 9.1478 2.86481 9.16034 2.86119 9.1725C2.85788 9.18456 2.85584 9.19694 2.8551 9.20943V15.1629C2.85769 15.3729 2.94224 15.5736 3.0907 15.7222C3.23917 15.8707 3.4398 15.9554 3.6498 15.9581H8.41191V11.1942H11.5881V15.9581H16.3515C16.5613 15.9549 16.7617 15.8701 16.91 15.7217C17.0583 15.5732 17.1429 15.3728 17.1458 15.1629V9.2103C17.1469 9.18492 17.1426 9.15959 17.1332 9.136L10 3.25505Z" fill="#B7B7B7"/>
<path d="M19.8619 7.79557L17.1454 5.53618V0.476867C17.1475 0.424158 17.1386 0.371588 17.1194 0.322465C17.1002 0.273342 17.071 0.228728 17.0337 0.191428C16.9964 0.154128 16.9518 0.124949 16.9026 0.105727C16.8535 0.0865051 16.8009 0.0776553 16.7482 0.0797344H14.3667C14.314 0.0776553 14.2615 0.0865051 14.2123 0.105727C14.1632 0.124949 14.1186 0.154128 14.0813 0.191428C14.044 0.228728 14.0148 0.273342 13.9956 0.322465C13.9764 0.371588 13.9675 0.424158 13.9696 0.476867V2.89572L10.9429 0.364766C10.6732 0.155518 10.3416 0.0419464 10.0002 0.0419464C9.65891 0.0419464 9.32728 0.155518 9.0576 0.364766L0.13777 7.79557C0.0970701 7.82751 0.0637089 7.86782 0.0399452 7.91377C0.0161815 7.95973 0.00257029 8.01025 3.32606e-05 8.06192C-0.0104378 8.16688 0.0207734 8.27175 0.0869331 8.3539L0.855997 9.272C0.923829 9.34714 1.0163 9.39553 1.1167 9.40843C1.22296 9.41466 1.32811 9.38396 1.41433 9.32153L10 2.16359L18.5844 9.32153C18.6575 9.38192 18.7505 9.4129 18.8451 9.40843H18.8825C18.9829 9.39549 19.0753 9.34711 19.1432 9.272L19.9123 8.35434C19.9784 8.27216 20.0096 8.16731 19.9992 8.06236C19.9968 8.01063 19.9833 7.96003 19.9596 7.91399C19.9359 7.86795 19.9026 7.82756 19.8619 7.79557Z" fill="#A1A1A1"/>
</g>
<defs>
<clipPath id="clip0_1466_2676">
<rect width="20" height="15.9161" fill="white" transform="translate(0 0.0419312)"/>
</clipPath>
</defs>
</svg>
