<svg width="36" height="36" viewBox="0 0 36 36" fill="none" xmlns="http://www.w3.org/2000/svg">
<g clip-path="url(#clip0_1184_5551)">
<path d="M28.7695 18.8751L17.5195 30.0171L6.26949 18.8751M6.26949 18.8751C5.52745 18.153 4.94296 17.2851 4.55282 16.326C4.16267 15.367 3.97534 14.3375 4.0026 13.3025C4.02986 12.2675 4.27114 11.2493 4.71123 10.3121C5.15132 9.3749 5.7807 8.53897 6.55972 7.85696C7.33875 7.17495 8.25055 6.66162 9.23771 6.34931C10.2249 6.037 11.266 5.93247 12.2955 6.04229C13.3251 6.15212 14.3207 6.47393 15.2198 6.98745C16.1189 7.50097 16.9019 8.19509 17.5195 9.02609C18.1398 8.20112 18.9237 7.51307 19.8221 7.005C20.7206 6.49692 21.7142 6.17976 22.7409 6.07337C23.7675 5.96698 24.8051 6.07364 25.7887 6.38668C26.7722 6.69972 27.6805 7.2124 28.4568 7.89264C29.2331 8.57287 29.8606 9.40602 30.3001 10.3399C30.7396 11.2738 30.9816 12.2884 31.011 13.3202C31.0403 14.3519 30.8564 15.3786 30.4707 16.336C30.085 17.2934 29.5059 18.1608 28.7695 18.8841" stroke="white" stroke-width="2" stroke-linecap="round" stroke-linejoin="round"/>
</g>
<defs>
<clipPath id="clip0_1184_5551">
<rect width="36" height="36" fill="white"/>
</clipPath>
</defs>
</svg>
