<svg width="24" height="24" viewBox="0 0 24 24" fill="none" xmlns="http://www.w3.org/2000/svg">
<path d="M18.8613 5.03367L19.2727 5.44062C19.8396 6.00208 19.7539 6.99739 19.0796 7.66369L10.5959 16.0559L7.84724 17.0505C7.50209 17.1761 7.16601 17.0133 7.09767 16.6884C7.07458 16.5706 7.08545 16.4487 7.12905 16.3367L8.15404 13.5942L16.614 5.22473C17.2883 4.55843 18.2945 4.4729 18.8613 5.03436V5.03367ZM10.2256 5.86827C10.3172 5.86827 10.4079 5.88611 10.4925 5.92077C10.5771 5.95543 10.6539 6.00624 10.7187 6.07029C10.7834 6.13434 10.8348 6.21038 10.8698 6.29406C10.9049 6.37775 10.9229 6.46744 10.9229 6.55802C10.9229 6.6486 10.9049 6.73829 10.8698 6.82198C10.8348 6.90566 10.7834 6.9817 10.7187 7.04575C10.6539 7.1098 10.5771 7.16061 10.4925 7.19527C10.4079 7.22993 10.3172 7.24777 10.2256 7.24777H7.43655C7.06669 7.24777 6.71198 7.39311 6.45046 7.65182C6.18893 7.91053 6.042 8.26141 6.042 8.62728V16.9043C6.042 17.2702 6.18893 17.6211 6.45046 17.8798C6.71198 18.1385 7.06669 18.2838 7.43655 18.2838H15.8038C16.1737 18.2838 16.5284 18.1385 16.7899 17.8798C17.0514 17.6211 17.1984 17.2702 17.1984 16.9043V14.1453C17.1984 13.9624 17.2718 13.7869 17.4026 13.6576C17.5333 13.5282 17.7107 13.4556 17.8956 13.4556C18.0806 13.4556 18.2579 13.5282 18.3887 13.6576C18.5194 13.7869 18.5929 13.9624 18.5929 14.1453V16.9043C18.5929 17.6361 18.2991 18.3378 17.776 18.8552C17.2529 19.3726 16.5435 19.6633 15.8038 19.6633H7.43655C6.69684 19.6633 5.98742 19.3726 5.46437 18.8552C4.94131 18.3378 4.64746 17.6361 4.64746 16.9043V8.62728C4.64746 7.89554 4.94131 7.19378 5.46437 6.67636C5.98742 6.15895 6.69684 5.86827 7.43655 5.86827H10.2256Z" fill="#727272"/>
</svg>
